<?xml version="1.0" encoding="UTF-8" standalone="no"?>
<!-- Created with Inkscape (http://www.inkscape.org/) -->

<svg
   xmlns:dc="http://purl.org/dc/elements/1.1/"
   xmlns:cc="http://creativecommons.org/ns#"
   xmlns:rdf="http://www.w3.org/1999/02/22-rdf-syntax-ns#"
   xmlns:svg="http://www.w3.org/2000/svg"
   xmlns="http://www.w3.org/2000/svg"
   xmlns:sodipodi="http://sodipodi.sourceforge.net/DTD/sodipodi-0.dtd"
   xmlns:inkscape="http://www.inkscape.org/namespaces/inkscape"
   width="1000"
   height="110.90801"
   id="svg3875"
   version="1.1"
   inkscape:version="0.48.5 r10040"
   sodipodi:docname="Google_Apps_for_Work.svg">
  <title
     id="title3036">Google Apps for Work Logo</title>
  <defs
     id="defs3877" />
  <sodipodi:namedview
     id="base"
     pagecolor="#ffffff"
     bordercolor="#666666"
     borderopacity="1.0"
     inkscape:pageopacity="0.0"
     inkscape:pageshadow="2"
     inkscape:zoom="0.56601563"
     inkscape:cx="345.42145"
     inkscape:cy="-89.481059"
     inkscape:document-units="px"
     inkscape:current-layer="g4000"
     showgrid="false"
     fit-margin-left="0.5"
     fit-margin-bottom="0.5"
     fit-margin-top="0.5"
     fit-margin-right="0.5"
     inkscape:window-width="1059"
     inkscape:window-height="841"
     inkscape:window-x="539"
     inkscape:window-y="25"
     inkscape:window-maximized="0" />
  <metadata
     id="metadata3880">
    <rdf:RDF>
      <cc:Work
         rdf:about="">
        <dc:format>image/svg+xml</dc:format>
        <dc:type
           rdf:resource="http://purl.org/dc/dcmitype/StillImage" />
        <dc:title>Google Apps for Work Logo</dc:title>
        <cc:license
           rdf:resource="http://creativecommons.org/licenses/by-nc-sa/3.0/" />
        <dc:source>http://logos.wikia.com/wiki/Google_Apps_for_Work</dc:source>
      </cc:Work>
      <cc:License
         rdf:about="http://creativecommons.org/licenses/by-nc-sa/3.0/">
        <cc:permits
           rdf:resource="http://creativecommons.org/ns#Reproduction" />
        <cc:permits
           rdf:resource="http://creativecommons.org/ns#Distribution" />
        <cc:requires
           rdf:resource="http://creativecommons.org/ns#Notice" />
        <cc:requires
           rdf:resource="http://creativecommons.org/ns#Attribution" />
        <cc:prohibits
           rdf:resource="http://creativecommons.org/ns#CommercialUse" />
        <cc:permits
           rdf:resource="http://creativecommons.org/ns#DerivativeWorks" />
        <cc:requires
           rdf:resource="http://creativecommons.org/ns#ShareAlike" />
      </cc:License>
    </rdf:RDF>
  </metadata>
  <g
     inkscape:label="Layer 1"
     inkscape:groupmode="layer"
     id="layer1"
     transform="translate(-777.87678,-434.01491)">
    <g
       id="g4000"
       transform="matrix(4.5872377,0,0,4.5872377,-781.28404,-1096.2973)">
      <g
         transform="matrix(0.54839254,0,0,0.54839254,256.67193,83.921775)"
         style="font-size:40px;font-style:normal;font-weight:normal;line-height:125%;letter-spacing:0px;word-spacing:0px;fill:#767676;fill-opacity:1;stroke:none;font-family:Sans"
         id="flowRoot2998">
        <path
           inkscape:connector-curvature="0"
           d="m 301.79224,488.95609 10.80078,-28.64014 4.15893,0 10.80078,28.64014 -4.08081,0 -2.76001,-7.76001 -12.03979,0 -2.79907,7.76001 z m 8.12011,-11.19995 9.52027,0 -4.68018,-12.91992 -0.15991,0 z"
           style="font-variant:normal;font-stretch:normal;fill:#767676;font-family:Product Sans;-inkscape-font-specification:Product Sans"
           id="path4014" />
        <path
           inkscape:connector-curvature="0"
           d="m 340.47144,489.59574 c -1.49334,0 -2.83347,-0.32003 -4.02039,-0.96009 -1.18694,-0.64005 -2.07337,-1.43981 -2.6593,-2.39929 l -0.15991,0 0.15991,2.71973 0,8.64014 -3.68042,0 0,-28.23975 3.52051,0 0,2.71973 0.15991,0 c 0.58593,-0.96027 1.47236,-1.76044 2.6593,-2.40052 1.18692,-0.64003 2.52705,-0.96006 4.02039,-0.96008 2.53335,2e-5 4.72003,1.00018 6.56005,3.00049 1.83999,2.00034 2.75999,4.4804 2.76001,7.44018 -2e-5,2.95981 -0.92002,5.43967 -2.76001,7.43958 -1.84002,1.99992 -4.0267,2.99988 -6.56005,2.99988 z m -0.60059,-3.35938 c 1.70653,1e-5 3.1732,-0.64676 4.40002,-1.9403 1.22679,-1.29354 1.8402,-3.007 1.84021,-5.14039 -1e-5,-2.13337 -0.61342,-3.84662 -1.84021,-5.13977 -1.22682,-1.29311 -2.69349,-1.93968 -4.40002,-1.93969 -1.73341,10e-6 -3.20659,0.64007 -4.41956,1.92016 -1.21297,1.28013 -1.81946,3.0001 -1.81945,5.15991 -1e-5,2.15984 0.60648,3.87981 1.81945,5.15992 1.21297,1.28011 2.68615,1.92017 4.41956,1.92016 z"
           style="font-variant:normal;font-stretch:normal;fill:#767676;font-family:Product Sans;-inkscape-font-specification:Product Sans"
           id="path4016" />
        <path
           inkscape:connector-curvature="0"
           d="m 363.36206,489.59574 c -1.49334,0 -2.83346,-0.32003 -4.02039,-0.96009 -1.18693,-0.64005 -2.07337,-1.43981 -2.6593,-2.39929 l -0.15991,0 0.15991,2.71973 0,8.64014 -3.68042,0 0,-28.23975 3.52051,0 0,2.71973 0.15991,0 c 0.58593,-0.96027 1.47237,-1.76044 2.6593,-2.40052 1.18693,-0.64003 2.52705,-0.96006 4.02039,-0.96008 2.53335,2e-5 4.72004,1.00018 6.56006,3.00049 1.83998,2.00034 2.75999,4.4804 2.76001,7.44018 -2e-5,2.95981 -0.92003,5.43967 -2.76001,7.43958 -1.84002,1.99992 -4.02671,2.99988 -6.56006,2.99988 z m -0.60059,-3.35938 c 1.70653,1e-5 3.17321,-0.64676 4.40003,-1.9403 1.22679,-1.29354 1.84019,-3.007 1.84021,-5.14039 -2e-5,-2.13337 -0.61342,-3.84662 -1.84021,-5.13977 -1.22682,-1.29311 -2.6935,-1.93968 -4.40003,-1.93969 -1.7334,10e-6 -3.20659,0.64007 -4.41955,1.92016 -1.21298,1.28013 -1.81946,3.0001 -1.81946,5.15991 0,2.15984 0.60648,3.87981 1.81946,5.15992 1.21296,1.28011 2.68615,1.92017 4.41955,1.92016 z"
           style="font-variant:normal;font-stretch:normal;fill:#767676;font-family:Product Sans;-inkscape-font-specification:Product Sans"
           id="path4018" />
        <path
           d="m 382.80063,489.59574 c -2.18669,0 -3.99333,-0.53325 -5.41992,-1.59973 -1.4266,-1.06649 -2.47355,-2.3997 -3.14087,-3.99964 l 3.28003,-1.35986 c 1.04004,2.4528 2.81372,3.6792 5.32105,3.6792 1.14663,0 2.08657,-0.25329 2.81982,-0.75989 0.73322,-0.50659 1.09984,-1.17329 1.09985,-2.00012 -10e-6,-1.28011 -0.89356,-2.1468 -2.68066,-2.6001 l -3.95996,-0.95947 c -1.25326,-0.31982 -2.43978,-0.92651 -3.55957,-1.82007 -1.11979,-0.89354 -1.67969,-2.1 -1.67969,-3.61938 0,-1.73339 0.7666,-3.14025 2.29981,-4.22059 1.53319,-1.0803 3.35326,-1.62046 5.4602,-1.62048 1.73339,2e-5 3.28002,0.39349 4.63989,1.18042 1.35985,0.78697 2.33316,1.91367 2.91993,3.38013 l -3.20069,1.31958 c -0.71941,-1.73338 -2.21274,-2.60008 -4.47998,-2.6001 -1.09294,2e-5 -2.01274,0.22666 -2.7594,0.67993 -0.74667,0.45331 -1.12,1.06691 -1.11999,1.84082 -1e-5,1.11981 0.86669,1.8799 2.6001,2.28028 l 3.87939,0.91918 c 1.83999,0.42645 3.20006,1.15968 4.0802,2.19971 0.88011,1.04005 1.32017,2.21355 1.32019,3.52051 -2e-5,1.76026 -0.72003,3.22693 -2.16003,4.40002 -1.44004,1.1731 -3.29327,1.75965 -5.5597,1.75965 z"
           style="font-variant:normal;font-stretch:normal;fill:#767676;font-family:Product Sans;-inkscape-font-specification:Product Sans"
           id="path4020"
           inkscape:connector-curvature="0" />
        <path
           d="m 410.56271,460.15604 c 1.17349,3e-5 2.16023,0.17337 2.96021,0.52002 l -1.28052,3.1604 c -0.42645,-0.21319 -0.98634,-0.3198 -1.67969,-0.31982 -0.9603,2e-5 -1.74704,0.28668 -2.36023,0.85998 -0.61321,0.57335 -0.91981,1.40648 -0.9198,2.49939 l 0,2.48047 5.11963,0 0,3.35937 -5.11963,0 0,16.24024 -3.68042,0 0,-16.24024 -3.68042,0 0,-3.35937 3.68042,0 0,-2.6001 c 0,-2.0003 0.64005,-3.60044 1.92017,-4.80041 1.2801,-1.19993 2.96019,-1.7999 5.04028,-1.79993 z"
           style="font-variant:normal;font-stretch:normal;fill:#767676;font-family:Product Sans;-inkscape-font-specification:Product Sans"
           id="path4022"
           inkscape:connector-curvature="0" />
        <path
           d="m 416.95135,471.69657 c 1.89371,-1.98729 4.30724,-2.98094 7.2406,-2.98096 2.93334,2e-5 5.34666,0.99347 7.23999,2.98035 1.89329,1.98691 2.83995,4.47368 2.83997,7.46032 -2e-5,2.98666 -0.94668,5.47323 -2.83997,7.45972 -1.89333,1.98649 -4.30665,2.97974 -7.23999,2.97974 -2.93336,0 -5.34668,-0.99325 -7.23999,-2.97974 -1.89331,-1.98649 -2.83997,-4.47306 -2.83996,-7.45972 -1e-5,-2.98664 0.94645,-5.47321 2.83935,-7.45971 z m 2.73926,12.6001 c 1.26708,1.29313 2.76732,1.9397 4.50073,1.93969 1.73339,1e-5 3.23343,-0.64676 4.50012,-1.9403 1.26667,-1.29354 1.90001,-3.007 1.90003,-5.14039 -2e-5,-2.13337 -0.63336,-3.84662 -1.90003,-5.13977 -1.26669,-1.29311 -2.76673,-1.93968 -4.50012,-1.93969 -1.73341,10e-6 -3.23345,0.64658 -4.50012,1.93969 -1.26669,1.29315 -1.90003,3.0064 -1.90003,5.13977 0,2.13339 0.63314,3.84706 1.89942,5.141 z"
           style="font-variant:normal;font-stretch:normal;fill:#767676;font-family:Product Sans;-inkscape-font-specification:Product Sans"
           id="path4024"
           inkscape:connector-curvature="0" />
        <path
           d="m 440.76927,488.95609 -3.68042,0 0,-19.59961 3.5205,0 0,3.19946 0.15992,0 c 0.37271,-1.06687 1.13911,-1.947 2.29919,-2.64038 1.16006,-0.69334 2.28677,-1.04002 3.38013,-1.04004 1.09333,2e-5 2.01353,0.16034 2.76062,0.48096 l -1.40015,3.43994 c -0.48016,-0.18716 -1.13364,-0.28074 -1.96045,-0.28076 -1.33302,2e-5 -2.51283,0.52675 -3.53943,1.5802 -1.02662,1.05348 -1.53992,2.43348 -1.53991,4.14001 z"
           style="font-variant:normal;font-stretch:normal;fill:#767676;font-family:Product Sans;-inkscape-font-specification:Product Sans"
           id="path4026"
           inkscape:connector-curvature="0" />
        <path
           d="m 494.26031,460.31595 -7.64038,28.64014 -3.75976,0 -6.15967,-18.8794 -0.15991,0 -6.16089,18.8794 -3.75977,0 -7.9602,-28.64014 3.84033,0 6.04004,22.51953 0.15991,0 6.19995,-18.6792 3.43994,0 6.19996,18.6792 0.15991,0 5.72021,-22.51953 z"
           style="font-variant:normal;font-stretch:normal;fill:#767676;font-family:Product Sans;-inkscape-font-specification:Product Sans"
           id="path4028"
           inkscape:connector-curvature="0" />
        <path
           d="m 496.87959,471.69657 c 1.89371,-1.98729 4.30724,-2.98094 7.2406,-2.98096 2.93334,2e-5 5.34666,0.99347 7.23999,2.98035 1.89329,1.98691 2.83995,4.47368 2.83997,7.46032 -2e-5,2.98666 -0.94668,5.47323 -2.83997,7.45972 -1.89333,1.98649 -4.30665,2.97974 -7.23999,2.97974 -2.93336,0 -5.34668,-0.99325 -7.23999,-2.97974 -1.89331,-1.98649 -2.83997,-4.47306 -2.83996,-7.45972 -10e-6,-2.98664 0.94645,-5.47321 2.83935,-7.45971 z m 2.73926,12.6001 c 1.26708,1.29313 2.76732,1.9397 4.50073,1.93969 1.73339,1e-5 3.23343,-0.64676 4.50012,-1.9403 1.26667,-1.29354 1.90001,-3.007 1.90003,-5.14039 -2e-5,-2.13337 -0.63336,-3.84662 -1.90003,-5.13977 -1.26669,-1.29311 -2.76673,-1.93968 -4.50012,-1.93969 -1.73341,10e-6 -3.23345,0.64658 -4.50012,1.93969 -1.26669,1.29315 -1.90003,3.0064 -1.90003,5.13977 0,2.13339 0.63314,3.84706 1.89942,5.141 z"
           style="font-variant:normal;font-stretch:normal;fill:#767676;font-family:Product Sans;-inkscape-font-specification:Product Sans"
           id="path4030"
           inkscape:connector-curvature="0" />
        <path
           d="m 520.69751,488.95609 -3.68042,0 0,-19.59961 3.5205,0 0,3.19946 0.15992,0 c 0.37271,-1.06687 1.13911,-1.947 2.29919,-2.64038 1.16006,-0.69334 2.28677,-1.04002 3.38013,-1.04004 1.09333,2e-5 2.01353,0.16034 2.76062,0.48096 l -1.40015,3.43994 c -0.48016,-0.18716 -1.13364,-0.28074 -1.96045,-0.28076 -1.33302,2e-5 -2.51283,0.52675 -3.53943,1.5802 -1.02662,1.05348 -1.53992,2.43348 -1.53991,4.14001 z"
           style="font-variant:normal;font-stretch:normal;fill:#767676;font-family:Product Sans;-inkscape-font-specification:Product Sans"
           id="path4032"
           inkscape:connector-curvature="0" />
        <path
           d="m 535.51097,460.31595 0,17.64038 8.479,-8.59985 4.72046,0 0,0.15991 -7.64038,7.63916 8.00049,11.64063 0,0.15991 -4.4397,0 -6.16089,-9.2395 -2.95898,2.95898 0,6.28052 -3.68042,0 0,-28.64014 z"
           style="font-variant:normal;font-stretch:normal;fill:#767676;font-family:Product Sans;-inkscape-font-specification:Product Sans"
           id="path4034"
           inkscape:connector-curvature="0" />
      </g>
      <g
         transform="translate(0,-28.244664)"
         id="g3062">
        <path
           sodipodi:nodetypes="cccccccccccccc"
           inkscape:connector-curvature="0"
           id="path3064"
           d="m 357.96512,370.4171 -8.52682,0 0,2.53021 6.04721,0 c -0.29874,3.54804 -3.25059,5.06113 -6.03698,5.06113 -3.56489,0 -6.6756,-2.80484 -6.6756,-6.7362 0,-3.82971 2.96532,-6.77913 6.68347,-6.77913 2.8686,0 4.55892,1.82868 4.55892,1.82868 l 1.7716,-1.83459 c 0,0 -2.2739,-2.53142 -6.42107,-2.53142 -5.28042,0 -9.36585,4.45711 -9.36585,9.27137 0,4.71742 3.84306,9.31763 9.50069,9.31763 4.97621,0 8.61883,-3.4089 8.61883,-8.44955 0,-1.06348 -0.1544,-1.67813 -0.1544,-1.67813 z"
           style="fill:#4885ed;fill-opacity:1;stroke:none" />
        <path
           inkscape:connector-curvature="0"
           id="path3066"
           d="m 364.95009,368.58492 c -3.49872,0 -6.00609,2.73528 -6.00609,5.92545 0,3.23733 2.43201,6.02348 6.0472,6.02348 3.27274,0 5.95391,-2.50141 5.95391,-5.9539 0,-3.95705 -3.11882,-5.99503 -5.99502,-5.99503 z m 0.0348,2.34678 c 1.72058,0 3.35095,1.39099 3.35095,3.63243 0,2.1939 -1.62352,3.62453 -3.35886,3.62453 -1.9068,0 -3.41104,-1.52715 -3.41104,-3.64192 0,-2.06942 1.48559,-3.61504 3.41895,-3.61504 z"
           style="fill:#db3236;fill-opacity:1;stroke:none" />
        <path
           inkscape:connector-curvature="0"
           style="fill:#f4c20d;fill-opacity:1;stroke:none"
           d="m 378.01303,368.58492 c -3.49872,0 -6.00609,2.73528 -6.00609,5.92545 0,3.23733 2.43201,6.02348 6.0472,6.02348 3.27274,0 5.95391,-2.50141 5.95391,-5.9539 0,-3.95705 -3.11883,-5.99503 -5.99502,-5.99503 z m 0.0348,2.34678 c 1.72058,0 3.35095,1.39099 3.35095,3.63243 0,2.1939 -1.62352,3.62453 -3.35886,3.62453 -1.9068,0 -3.41104,-1.52715 -3.41104,-3.64192 0,-2.06942 1.48559,-3.61504 3.41895,-3.61504 z"
           id="path3068" />
        <path
           inkscape:connector-curvature="0"
           id="path3070"
           d="m 390.82468,368.59125 c -3.21144,0 -5.73568,2.81273 -5.73568,5.96972 0,3.59611 2.9265,5.98079 5.68033,5.98079 1.70277,0 2.60819,-0.67591 3.27662,-1.45171 l 0,1.17813 c 0,2.06127 -1.25157,3.2956 -3.14062,3.2956 -1.82493,0 -2.74031,-1.35696 -3.0584,-2.12696 l -2.29617,0.9599 c 0.8146,1.72235 2.45434,3.51858 5.37354,3.51858 3.19295,0 5.62656,-2.01118 5.62656,-6.22907 l 0,-10.73601 -2.50491,0 0,1.01209 c -0.76968,-0.82992 -1.82291,-1.37106 -3.22127,-1.37106 z m 0.23246,2.34203 c 1.57451,0 3.19123,1.34439 3.19123,3.64034 0,2.33363 -1.61328,3.61979 -3.22602,3.61979 -1.71208,0 -3.30509,-1.39018 -3.30509,-3.59765 0,-2.29376 1.65449,-3.66248 3.33988,-3.66248 z"
           style="fill:#4885ed;fill-opacity:1;stroke:none" />
        <path
           inkscape:connector-curvature="0"
           id="path3072"
           d="m 407.68855,368.57702 c -3.02931,0 -5.5728,2.41015 -5.5728,5.96656 0,3.76313 2.83511,5.99502 5.86377,5.99502 2.5278,0 4.07924,-1.38289 5.00508,-2.62194 l -2.06529,-1.37422 c -0.53593,0.83172 -1.43188,1.64464 -2.92714,1.64464 -1.6796,0 -2.45186,-0.9197 -2.9303,-1.81068 l 8.01128,-3.32407 -0.4159,-0.97413 c -0.77424,-1.90772 -2.57972,-3.50118 -4.9687,-3.50118 z m 0.10436,2.29775 c 1.09158,0 1.87716,0.58035 2.21078,1.27617 l -5.34982,2.23608 c -0.23064,-1.73119 1.40943,-3.51225 3.13904,-3.51225 z"
           style="fill:#db3236;fill-opacity:1;stroke:none" />
        <path
           inkscape:connector-curvature="0"
           id="path3074"
           d="m 398.29671,380.18372 2.63142,0 0,-17.61028 -2.63142,0 z"
           style="fill:#3cba54;fill-opacity:1;stroke:none" />
      </g>
    </g>
  </g>
</svg>
